# Blender v2.79 (sub 0) OBJ File: 'YEET.blend'
# www.blender.org
mtllib YEET.mtl
o Cube
v -0.000000 -1.000000 -5.961801
v -0.000000 1.000000 -5.961801
v 1.163090 -1.000000 -5.847247
v 1.163090 1.000000 -5.847247
v 2.281483 -1.000000 -5.507986
v 2.281483 1.000000 -5.507986
v 3.312200 -1.000000 -4.957056
v 3.312200 1.000000 -4.957056
v 3.312199 -1.000000 4.957059
v 3.312199 1.000000 4.957059
v 2.281482 -1.000000 5.507989
v 2.281482 1.000000 5.507989
v 1.163088 -1.000000 5.847250
v 1.163088 1.000000 5.847250
v -0.000002 -1.000000 5.961804
v -0.000002 1.000000 5.961804
v -1.163093 -1.000000 5.847249
v -1.163093 1.000000 5.847249
v -2.281486 -1.000000 5.507987
v -2.281486 1.000000 5.507987
v -3.312203 -1.000000 4.957057
v -3.312203 1.000000 4.957057
v -4.215634 -1.000000 4.215630
v -4.215634 1.000000 4.215630
v -4.957060 -1.000000 3.312197
v -4.957060 1.000000 3.312197
v -5.507989 -1.000000 2.281480
v -5.507989 1.000000 2.281480
v -5.847249 -1.000000 1.163086
v -5.847249 1.000000 1.163086
v -5.961802 -1.000000 -0.000004
v -5.961802 1.000000 -0.000004
v -5.847247 -1.000000 -1.163095
v -5.847247 1.000000 -1.163095
v -5.507985 -1.000000 -2.281488
v -5.507985 1.000000 -2.281488
v -4.957054 -1.000000 -3.312205
v -4.957054 1.000000 -3.312205
v -4.215626 -1.000000 -4.215635
v -4.215626 1.000000 -4.215635
v -3.312194 -1.000000 -4.957061
v -3.312194 1.000000 -4.957061
v -2.281475 -1.000000 -5.507989
v -2.281475 1.000000 -5.507989
v -1.163081 -1.000000 -5.847248
v -1.163081 1.000000 -5.847248
v -0.000001 -1.839480 -10.966613
v 2.139480 -1.839480 -10.755892
v 1.757432 3.398317 -8.839965
v -0.000946 3.398317 -9.013151
v 4.196741 -1.839480 -10.131829
v 3.448237 3.398317 -8.327067
v 6.092724 -1.839480 -9.118403
v 5.006493 3.398317 -7.494161
v 6.092723 -1.839480 9.118410
v 5.006493 3.398317 7.494164
v 4.196739 -1.839480 10.131835
v 3.448237 3.398317 8.327069
v 2.139477 -1.839480 10.755898
v 1.757430 3.398317 8.839971
v -0.000004 -1.839480 10.966619
v -0.000949 3.398317 9.013155
v -2.139486 -1.839480 10.755897
v -1.759329 3.398317 8.839968
v -4.196748 -1.839480 10.131832
v -3.450134 3.398317 8.327067
v -6.092731 -1.839480 9.118406
v -5.008391 3.398317 7.494163
v -7.754574 -1.839480 7.754566
v -6.374212 3.398317 6.373260
v -9.118412 -1.839480 6.092720
v -7.495113 3.398317 5.007436
v -10.131836 -1.839480 4.196736
v -8.328016 3.398317 3.449179
v -10.755898 -1.839480 2.139473
v -8.840915 3.398317 1.758373
v -10.966616 -1.839480 -0.000008
v -9.014098 3.398317 -0.000007
v -10.755893 -1.839480 -2.139489
v -8.840912 3.398317 -1.758386
v -10.131826 -1.839480 -4.196750
v -8.328009 3.398317 -3.449191
v -9.118400 -1.839480 -6.092734
v -7.495102 3.398317 -5.007447
v -7.754560 -1.839480 -7.754575
v -6.374200 3.398317 -6.373267
v -6.092713 -1.839480 -9.118412
v -5.008376 3.398317 -7.494166
v -4.196728 -1.839480 -10.131833
v -3.450118 3.398317 -8.327069
v -2.139465 -1.839480 -10.755895
v -1.759312 3.398317 -8.839968
vn 0.5465 0.7848 0.2921
vn -0.0608 0.7848 0.6168
vn 0.1799 0.7848 -0.5931
vn 0.1466 -0.9861 0.0783
vn -0.0163 -0.9861 0.1654
vn 0.0482 -0.9861 -0.1590
vn 0.5930 0.7849 0.1799
vn 0.0608 0.7848 -0.6168
vn 0.1590 -0.9861 0.0482
vn 0.0163 -0.9861 -0.1654
vn 0.6167 0.7849 0.0607
vn -0.0608 0.7848 -0.6168
vn 0.1654 -0.9861 0.0163
vn -0.0163 -0.9861 -0.1654
vn 0.6167 0.7849 -0.0607
vn -0.1799 0.7847 -0.5931
vn 0.1654 -0.9861 -0.0163
vn -0.0482 -0.9861 -0.1590
vn 0.0607 0.7848 0.6168
vn 0.5930 0.7849 -0.1799
vn 0.0163 -0.9861 0.1654
vn -0.2922 0.7847 -0.5467
vn 0.1590 -0.9861 -0.0482
vn 0.0919 0.3480 -0.9330
vn 0.2721 0.3480 -0.8971
vn 0.4419 0.3480 -0.8268
vn 0.4419 0.3480 0.8268
vn 0.2721 0.3480 0.8971
vn 0.0919 0.3480 0.9330
vn -0.0919 0.3480 0.9330
vn -0.2721 0.3479 0.8972
vn -0.4420 0.3479 0.8268
vn -0.5948 0.3479 0.7247
vn -0.7247 0.3478 0.5948
vn -0.8269 0.3478 0.4420
vn -0.8972 0.3478 0.2722
vn -0.9330 0.3478 0.0919
vn -0.9330 0.3478 -0.0919
vn -0.8972 0.3478 -0.2722
vn -0.8269 0.3478 -0.4420
vn -0.7247 0.3478 -0.5948
vn -0.5948 0.3479 -0.7247
vn -0.4419 0.3479 -0.8268
vn -0.2721 0.3479 -0.8972
vn -0.0919 0.3479 -0.9330
vn 0.0783 -0.9861 -0.1466
vn 0.1285 -0.9861 0.1054
vn 0.2921 0.7848 -0.5466
vn -0.0482 -0.9861 0.1590
vn 0.4790 0.7848 0.3931
vn -0.1799 0.7847 0.5931
vn 0.1054 -0.9861 -0.1285
vn 0.1054 -0.9861 0.1285
vn 0.3931 0.7848 -0.4791
vn -0.0783 -0.9861 0.1466
vn 0.3931 0.7848 0.4791
vn -0.2922 0.7847 0.5467
vn 0.1285 -0.9861 -0.1054
vn 0.0783 -0.9861 0.1466
vn 0.4790 0.7848 -0.3931
vn 0.2921 0.7848 0.5466
vn 0.1466 -0.9861 -0.0783
vn 0.0482 -0.9861 0.1590
vn 0.5465 0.7848 -0.2921
vn 0.1799 0.7848 0.5931
vn -0.0783 -0.9861 -0.1466
vn -0.4714 0.0000 -0.8819
vn -0.2903 0.0000 -0.9569
vn -0.0980 0.0000 -0.9952
vn 0.0980 0.0000 -0.9952
vn 0.2903 0.0000 -0.9569
vn 0.4714 0.0000 -0.8819
vn 0.6344 0.0000 -0.7730
vn 0.7730 0.0000 -0.6344
vn 0.8819 0.0000 -0.4714
vn 0.9569 0.0000 -0.2903
vn 0.9952 0.0000 -0.0980
vn 0.9952 0.0000 0.0980
vn 0.9569 0.0000 0.2903
vn 0.8819 0.0000 0.4714
vn 0.7730 0.0000 0.6344
vn 0.6344 0.0000 0.7730
vn 0.4714 0.0000 0.8819
vn 0.2903 0.0000 0.9569
vn 0.0980 0.0000 0.9952
vn -0.0980 0.0000 0.9952
vn -0.2903 0.0000 0.9569
vn -0.4714 0.0000 0.8819
vn 0.8315 0.0001 -0.5555
vn 0.8315 0.0001 0.5555
usemtl Material
s off
f 36//1 38//1 84//1 82//1
f 2//2 4//2 49//2 50//2
f 18//3 20//3 66//3 64//3
f 37//4 35//4 81//4 83//4
f 3//5 1//5 47//5 48//5
f 19//6 17//6 63//6 65//6
f 34//7 36//7 82//7 80//7
f 16//8 18//8 64//8 62//8
f 35//9 33//9 79//9 81//9
f 17//10 15//10 61//10 63//10
f 32//11 34//11 80//11 78//11
f 14//12 16//12 62//12 60//12
f 33//13 31//13 77//13 79//13
f 15//14 13//14 59//14 61//14
f 30//15 32//15 78//15 76//15
f 12//16 14//16 60//16 58//16
f 31//17 29//17 75//17 77//17
f 13//18 11//18 57//18 59//18
f 46//19 2//19 50//19 92//19
f 28//20 30//20 76//20 74//20
f 1//21 45//21 91//21 47//21
f 10//22 12//22 58//22 56//22
f 29//23 27//23 73//23 75//23
f 47//24 50//24 49//24 48//24
f 48//25 49//25 52//25 51//25
f 51//26 52//26 54//26 53//26
f 55//27 56//27 58//27 57//27
f 57//28 58//28 60//28 59//28
f 59//29 60//29 62//29 61//29
f 61//30 62//30 64//30 63//30
f 63//31 64//31 66//31 65//31
f 65//32 66//32 68//32 67//32
f 67//33 68//33 70//33 69//33
f 69//34 70//34 72//34 71//34
f 71//35 72//35 74//35 73//35
f 73//36 74//36 76//36 75//36
f 75//37 76//37 78//37 77//37
f 77//38 78//38 80//38 79//38
f 79//39 80//39 82//39 81//39
f 81//40 82//40 84//40 83//40
f 83//41 84//41 86//41 85//41
f 85//42 86//42 88//42 87//42
f 87//43 88//43 90//43 89//43
f 89//44 90//44 92//44 91//44
f 91//45 92//45 50//45 47//45
f 21//46 19//46 65//46 67//46
f 39//47 37//47 83//47 85//47
f 20//48 22//48 68//48 66//48
f 5//49 3//49 48//49 51//49
f 38//50 40//50 86//50 84//50
f 4//51 6//51 52//51 49//51
f 23//52 21//52 67//52 69//52
f 41//53 39//53 85//53 87//53
f 22//54 24//54 70//54 68//54
f 7//55 5//55 51//55 53//55
f 40//56 42//56 88//56 86//56
f 6//57 8//57 54//57 52//57
f 25//58 23//58 69//58 71//58
f 43//59 41//59 87//59 89//59
f 24//60 26//60 72//60 70//60
f 42//61 44//61 90//61 88//61
f 27//62 25//62 71//62 73//62
f 45//63 43//63 89//63 91//63
f 26//64 28//64 74//64 72//64
f 44//65 46//65 92//65 90//65
f 11//66 9//66 55//66 57//66
f 9//67 11//67 12//67 10//67
f 11//68 13//68 14//68 12//68
f 13//69 15//69 16//69 14//69
f 15//70 17//70 18//70 16//70
f 17//71 19//71 20//71 18//71
f 19//72 21//72 22//72 20//72
f 21//73 23//73 24//73 22//73
f 23//74 25//74 26//74 24//74
f 25//75 27//75 28//75 26//75
f 27//76 29//76 30//76 28//76
f 29//77 31//77 32//77 30//77
f 31//78 33//78 34//78 32//78
f 33//79 35//79 36//79 34//79
f 35//80 37//80 38//80 36//80
f 37//81 39//81 40//81 38//81
f 39//82 41//82 42//82 40//82
f 41//83 43//83 44//83 42//83
f 43//84 45//84 46//84 44//84
f 45//85 1//85 2//85 46//85
f 1//86 3//86 4//86 2//86
f 3//87 5//87 6//87 4//87
f 5//88 7//88 8//88 6//88
f 10//89 56//89 55//89 9//89
f 54//90 8//90 7//90 53//90
